:SAMPLES-PER-SECOND 24
:FULLY-SPECIFIED
:DEGREES
624
root  3.77638 38.2665 12.3718 111.832 24.7413 134.673
RightUpLeg  15.9228 10.3814 -35.3939
RightLeg  37.1531 3.40038 2.50432
RightFoot  -13.146 -0.290261 -12.752
RightToes  -1.74623e-010 0 -2.59999e-017
Spine  12.9789 4.18577 -1.42208
Spine1  26.2635 15.2315 -26.5052
HEad  35.1333 35.7349 0.0342581
LeftShoulder1  2.50488 -3.45167 -29.9811
LeftArm  -31.5226 6.8621 -20.7718
LeftForeArm  165.45 -54.8929 -165.394
LeftHand  -0.374999 4.04232 32.0873
RightShoulder  3.73846 6.30465 32.2307
RightArm  16.6177 30.8956 61.8289
RightForeArm  130.888 77.9366 125.71
RightHand  -0.0474788 -3.95335 -2.2268
LeftUpLeg  -71.308 37.7677 22.6347
LeftLeg  36.5776 -7.10991 -5.27751
LeftFoot  38.2934 7.32457 -16.3038
LeftToes  -6.27559e-011 -2.10356e-011 8.24929e-012
625
root  3.5285 38.3677 12.246 115.582 24.3621 135.96
RightUpLeg  14.5766 9.85101 -34.2522
RightLeg  35.7421 0.719839 0.30075
RightFoot  -13.4215 -0.328569 -13.0897
RightToes  -1.74623e-010 0 -2.59999e-017
Spine  11.8365 4.60395 -0.111054
Spine1  25.6853 14.8324 -26.3271
HEad  32.3139 34.5275 -0.754114
LeftShoulder1  2.24987 -3.13344 -27.8169
LeftArm  -31.8086 1.90919 -23.3821
LeftForeArm  167.254 -55.7417 -165.098
LeftHand  -0.129408 4.90884 31.8129
RightShoulder  3.67224 6.28529 31.625
RightArm  16.4006 30.4807 61.8343
RightForeArm  137.134 76.6838 132.672
RightHand  -0.0966428 -3.39135 -4.70451
LeftUpLeg  -72.9258 33.2705 18.4468
LeftLeg  50.2609 -4.83858 -5.75383
LeftFoot  37.1823 6.38838 -14.6592
LeftToes  -6.27559e-011 -2.10356e-011 8.24929e-012
626
root  3.30488 38.495 12.8984 119.982 25.3359 138.416
RightUpLeg  12.0979 5.97909 -32.3464
RightLeg  34.4336 1.41686 0.778678
RightFoot  -11.7746 -0.129934 -13.0778
RightToes  -1.74623e-010 0 -2.59999e-017
Spine  11.4461 3.91587 1.67275
Spine1  25.6571 15.2497 -26.8376
HEad  28.484 33.8736 -1.63087
LeftShoulder1  2.05571 -2.80663 -26.4522
LeftArm  -31.4023 0.862083 -25.3348
LeftForeArm  165.209 -53.9712 -165.828
LeftHand  -0.219816 4.61092 33.0146
RightShoulder  3.56616 6.26706 30.5971
RightArm  16.2346 30.9513 61.4759
RightForeArm  141.055 75.8586 136.372
RightHand  -0.132833 -2.38931 -4.80014
LeftUpLeg  -73.6731 30.0103 13.4917
LeftLeg  65.8516 -2.75008 -6.10214
LeftFoot  37.5621 6.70332 -15.2152
LeftToes  -6.27559e-011 -2.10356e-011 8.24929e-012
627
root  3.20129 38.862 12.6014 123.549 27.0856 141.257
RightUpLeg  12.0773 2.20984 -30.922
RightLeg  31.8412 3.10312 1.82981
RightFoot  -10.312 0.0441444 -12.5716
RightToes  -1.74623e-010 0 -2.59999e-017
Spine  10.212 4.07628 4.33177
Spine1  24.4443 14.5456 -24.5803
HEad  26.1301 32.1011 -1.02042
LeftShoulder1  1.90444 -2.5372 -25.3547
LeftArm  -29.1541 1.35701 -27.2208
LeftForeArm  165.453 -51.7005 -166.911
LeftHand  -0.216578 4.6 31.9259
RightShoulder  3.54531 6.18718 30.6855
RightArm  15.133 31.1086 59.6665
RightForeArm  143.787 75.3212 138.566
RightHand  -0.0802521 -2.32548 -2.56431
LeftUpLeg  -69.8273 27.8258 10.1278
LeftLeg  84.5507 -0.716281 -7.47072
LeftFoot  38.3775 6.71899 -14.9851
LeftToes  -6.27559e-011 -2.10356e-011 8.24929e-012
628
root  3.18085 39.065 12.7789 128.791 27.9314 145.574
RightUpLeg  11.5188 -1.13087 -27.2071
RightLeg  29.2512 2.15088 1.06477
RightFoot  -8.89133 0.206591 -12.3955
RightToes  -1.74623e-010 0 -2.59999e-017
Spine  8.6595 3.84266 5.29408
Spine1  23.4319 13.4704 -21.5935
HEad  24.3313 29.8764 -0.39326
LeftShoulder1  1.73755 -2.22166 -24.1192
LeftArm  -26.6597 0.642955 -29.2534
LeftForeArm  168.117 -51.0162 -167.404
LeftHand  -0.0401364 5.22416 29.947
RightShoulder  3.44985 6.03181 30.274
RightArm  14.1352 30.6058 59.5216
RightForeArm  144.844 75.042 139.563
RightHand  -0.0683133 -3.11209 -2.70401
LeftUpLeg  -63.2772 24.683 7.49788
LeftLeg  100.003 1.48829 -8.24591
LeftFoot  39.6081 7.06467 -15.3116
LeftToes  -6.27559e-011 -2.10356e-011 8.24929e-012
629
root  3.14264 39.0503 13.0973 135.279 28.5159 150.757
RightUpLeg  9.09406 -5.40458 -22.7994
RightLeg  28.2337 1.34284 0.535687
RightFoot  -7.94784 0.303931 -12.0064
RightToes  -1.74623e-010 0 -2.59999e-017
Spine  7.04562 3.35207 6.51654
Spine1  22.4016 12.2054 -18.16
HEad  21.4452 28.3881 -1.25844
LeftShoulder1  1.61791 -2.00517 -23.0885
LeftArm  -25.0578 -1.44763 -30.8926
LeftForeArm  168.698 -51.1015 -167.41
LeftHand  -0.0132211 5.32714 29.665
RightShoulder  3.30663 5.88689 29.2885
RightArm  13.4013 30.7403 60.2091
RightForeArm  146.995 74.1857 142.177
RightHand  -0.0788779 -3.73107 -4.29561
LeftUpLeg  -55.0088 22.8032 5.11463
LeftLeg  111.113 3.25735 -8.29001
LeftFoot  41.8228 7.06346 -14.616
LeftToes  -6.27559e-011 -2.10356e-011 8.24929e-012
630
root  3.11854 38.9229 13.696 142.232 28.0708 156.405
RightUpLeg  5.80369 -10.1704 -17.7335
RightLeg  27.2886 0.0275358 -0.27686
RightFoot  -6.77874 0.448738 -12.3272
RightToes  -1.74623e-010 0 -2.59999e-017
Spine  5.68058 2.79069 7.44393
Spine1  21.5443 10.8941 -14.693
HEad  18.1847 26.9988 -2.45032
LeftShoulder1  1.53831 -1.93321 -21.949
LeftArm  -23.6598 -5.04964 -32.7291
LeftForeArm  168.69 -51.5418 -167.22
LeftHand  0.00798859 5.40899 29.6871
RightShoulder  3.24512 5.79889 28.9531
RightArm  11.8007 31.8464 59.7015
RightForeArm  149.276 72.8582 145.54
RightHand  -0.0685504 -4.08185 -4.35769
LeftUpLeg  -45.1522 21.589 3.78954
LeftLeg  114.159 3.76948 -8.24525
LeftFoot  42.3885 7.33312 -14.9722
LeftToes  -6.27559e-011 -2.10356e-011 8.24929e-012
631
root  3.16706 38.8572 14.3527 149.381 25.6006 161.949
RightUpLeg  2.58017 -13.6554 -12.5729
RightLeg  25.0749 -2.96037 -1.43262
RightFoot  -5.45201 0.629596 -12.8819
RightToes  -1.74623e-010 0 -2.59999e-017
Spine  4.07526 2.03414 6.98738
Spine1  20.6254 8.97076 -11.4041
HEad  15.4545 25.4301 -3.0006
LeftShoulder1  1.4329 -1.82692 -20.4401
LeftArm  -21.932 -9.26246 -35.6913
LeftForeArm  169.536 -52.4485 -166.881
LeftHand  0.112595 5.81879 29.2719
RightShoulder  3.14299 5.63839 28.435
RightArm  10.0935 32.9698 59.6612
RightForeArm  149.669 72.1623 146.974
RightHand  -0.0501764 -4.66311 -4.56979
LeftUpLeg  -35.7839 19.7422 2.90062
LeftLeg  111.263 3.29819 -8.35476
LeftFoot  41.2875 7.69594 -16.0572
LeftToes  -6.27559e-011 -2.10356e-011 8.24929e-012
632
root  3.2085 38.844 14.9045 155.853 21.9338 166.531
RightUpLeg  -0.796062 -14.8613 -8.42854
RightLeg  22.7698 -7.47871 -1.73744
RightFoot  -3.94184 0.819654 -13.0145
RightToes  -1.74623e-010 0 -2.59999e-017
Spine  1.923 1.17655 5.91661
Spine1  20.2107 6.77469 -8.30507
HEad  12.5908 23.816 -3.41013
LeftShoulder1  1.34847 -1.72532 -19.2699
LeftArm  -19.7761 -13.4257 -39.3292
LeftForeArm  169.571 -53.5054 -166.396
LeftHand  0.147534 5.95163 29.3902
RightShoulder  2.9516 5.38559 27.2216
RightArm  9.05012 34.1529 60.189
RightForeArm  150.181 71.7765 147.763
RightHand  -0.0287004 -5.28479 -6.11839
LeftUpLeg  -26.1179 18.8874 2.39459
LeftLeg  103.64 1.41306 -6.02137
LeftFoot  37.199 6.02166 -13.8454
LeftToes  -6.27559e-011 -2.10356e-011 8.24929e-012
633
root  3.24475 38.9717 15.3909 160.477 17.7758 169.401
RightUpLeg  -2.93593 -13.9698 -6.01024
RightLeg  19.4992 -13.4194 -1.64352
RightFoot  -1.84175 1.10797 -13.4022
RightToes  -1.74623e-010 0 -2.59999e-017
Spine  0.0812767 0.667136 3.95799
Spine1  20.3687 4.86915 -5.69939
HEad  9.29271 21.5148 -3.7284
LeftShoulder1  1.30793 -1.71118 -18.5083
LeftArm  -16.8503 -18.2485 -43.3742
LeftForeArm  170.099 -54.9856 -165.714
LeftHand  0.183332 6.10013 29.1118
RightShoulder  2.78766 5.14655 26.2072
RightArm  7.45773 35.8622 59.487
RightForeArm  151.057 71.0494 149.155
RightHand  -0.00886581 -5.64894 -6.86595
LeftUpLeg  -15.5414 19.4294 3.19305
LeftLeg  91.8247 -0.219063 -0.373581
LeftFoot  32.0924 4.10587 -10.8114
LeftToes  -6.27559e-011 -2.10356e-011 8.24929e-012
